<svg width="53" height="49" viewBox="0 0 53 49" fill="none" xmlns="http://www.w3.org/2000/svg">
<path d="M37.43 25.7876L53 24.5771L37.43 23.3667C34.9555 23.1632 32.638 22.169 30.8814 20.5575C29.1249 18.9461 28.0413 16.8199 27.8194 14.5497L26.5 0.265442L25.1806 14.5497C24.9588 16.8199 23.8752 18.946 22.1186 20.5575C20.3621 22.169 18.0445 23.1631 15.57 23.3667L0 24.5771L15.57 25.7876C18.0445 25.9911 20.362 26.9852 22.1186 28.5967C23.8751 30.2082 24.9587 32.3343 25.1806 34.6046L26.5 48.8888L27.8194 34.6046C28.0412 32.3343 29.1248 30.2082 30.8814 28.5967C32.6379 26.9853 34.9555 25.9911 37.43 25.7876Z" fill="black"/>
</svg>
